<svg xmlns="http://www.w3.org/2000/svg" viewBox="0 0 470.73 472.9"><defs><style>.cls-14{fill:#221916}.cls-6,.cls-7,.cls-8{stroke-miterlimit:10}.cls-8{stroke-width:4px}.cls-6,.cls-7,.cls-8{fill:none}.cls-7{stroke-width:3px}.cls-6,.cls-7,.cls-8{stroke:#010201}.cls-6{stroke-width:2px}.cls-9{fill:#020502}.cls-12{fill:#fff}</style></defs><g id="Capa_2" data-name="Capa 2"><g id="Capa_4" data-name="Capa 4"><g id="Capa_1-2" data-name="Capa 1"><ellipse id="circuloExterno" cx="235.37" cy="236.09" rx="233.37" ry="234.09" style="fill:#221916;stroke:#fcfafa;stroke-miterlimit:10;stroke-width:4px"/><ellipse id="circuloInterno" cx="236.06" cy="235.26" rx="150.87" ry="151.98" style="stroke-miterlimit:10;fill:none;stroke:#fff;stroke-width:3px"/><path id="sol" d="M88.73 246.4c4.06 12.13 38.51 10.62 59.29 9.8 54.39-2.13 81.58-3.2 97.75-2.45 25.54 1.18 52.08 4.5 78.53 2.94 13.85-.82 15.89-2.27 27.87-2 14.18.38 22.69 2.72 26.9-2.46 1.84-2.25 2-5.94 2.15-13.25a107.7 107.7 0 0 0-1.22-19.45c-1.42-8.91-3-19-7.61-31.85a151.2 151.2 0 0 0-25.8-45.28 147.7 147.7 0 0 0-35.49-31.09 143.72 143.72 0 0 0-133.94-9.76 152.8 152.8 0 0 0-42.8 28.78 109.7 109.7 0 0 0-16.08 18.32c-2.57 3.73-6.17 10.73-13.26 24.58-7.41 14.47-8.4 16.87-9.32 19.49A116 116 0 0 0 90.57 214a166 166 0 0 0-2 21.85c-.16 6.21-.26 9.33.16 10.55" style="fill:#eaac3a"/><path id="mar" d="M90 241.73c3.91-4.53 13.56-.67 25.89 1.2 7.94 1.2 9.21.42 30.92 0 24.76-.47 33.12.38 57.77.47 11.53.06 31.89-.6 72.65-1.91 31.56-1 64.33 7.22 94.69-1.43 1.46-.42 7.75-2.35 9.84.23 1.18 1.48.45 3.75-.48 7.44-1.23 4.89-1.65 10-2.87 14.87-4.62 18.36-4.29 17.36-4.56 18.21-3.16 9.93-6.85 16.91-10.85 24.19a154.4 154.4 0 0 1-14.87 23.49 129.8 129.8 0 0 1-30.45 27.81c-8.11 5.53-26.45 17.71-53.21 22.54-17.47 3.15-31.47 1.89-41.72 1A156.2 156.2 0 0 1 189 373.6a144.75 144.75 0 0 1-55.61-32.36c-17.25-16.18-25.83-32.25-31.16-42.43 0 0-7.36-14.09-13.41-48.9-.38-1.91-.98-5.73 1.18-8.18" style="fill:#86bdd5"/><g id="Dibujo"><path d="m172.45 364.35 130.45.58" style="stroke-miterlimit:10;fill:none;stroke:#000"/><path d="m147.87 350.44 173.36 1.18M130.27 337.12h209.81" class="cls-6"/><path d="m117.87 323.17 233.64.62M111.17 309.76l249.54.43" class="cls-7"/><path d="m366.49 296.79-263-.76M98.24 282.31l274.8.96" class="cls-8"/><path d="M94.22 264.2h85.55l162.85.49h32.91l-.24 9.76h-6.92l-23.6-.36-44.63-.27-90.35-.31-50.52-.31-54.88-.27h-9.17zM90.37 250h41.45l38.83.46h110.46000000000001l37.26.32h61.19v9.89l-3.87.13h-76.53l-16.16-.24-18.64-.18-23.18-.03-18.03-.15h-18.22l-20.59-.11-25.58-.11-21.65-.07-18.55-.11-18.41-.11-8.53-.14z" class="cls-9"/><path d="M118.27 234.24h-27.9l-1.26 12.11h53.760000000000005l30.65.23 30.22.29 27.72.08h54.66l24.36.34h32.42l30.56.27h9.21l1.17-12.85-1.66-.18-3.25-.29H344l-23.63.24-17.92-.24h-51.07l-30.97-.31h-23.67l-17.75-.84-10.96.84h-14.4zM379.56 207.81l-4.03.96-.91.36-4.13.33-13 .76-14.74.8-6.51.59-13.89.85-9.54.42-10.96.43-15.91 1.1-17.12.85-4.19.22-1.85 15.87v.24h20.560000000000002l10.73.05h84.82000000000001z"/><path d="M149.83 223.48c0 .05.39.72.93 1.67s1.25 2.09 2 3.13a8.3 8.3 0 0 0 2.18 2.43 9.2 9.2 0 0 0 1.8.68 28.5 28.5 0 0 0 4 .5c.56 0 .67.24 1 .79s-.17 1.43.31 1.45 3.65.44 4.12.45c11.33.51 28 .08 32.4.08l.34-.46v-1.43c.06-.06.89-.18 1-.26a9 9 0 0 0 1-.51l1.13-.87s.83-1 .91-1c.4-.42.67-.94 1.07-1.36 0-.07.56-1 .56-1a3.9 3.9 0 0 0 .38-1s.15-.75.17-.77c.05-2.31.13-4.63.18-6.94L204 219v2.26h-.73v1.84l-.64.16-1.47.33-1.55.53-2.89.6-4.29 1.14-3.45.77-5.75.61-.31-.12h-.12v-38.29h-1.27l-.05 3.51v34.63l-1.26.16-1.45.07v-1.4H178l-.05-2.81h-.67l-.13 2.6v.27h-2.69v1.51l-1.37.06-3-.26-1.32-.24-2.19-.21-1.07-.29-2.16-.13-2.55-.3-1.57-.22-1.34-.2-1.31-.22-.66-.21-1.32-.2-.86-.24-.91-.25-.83-.2-1.31-.24Z" style="fill:#000500"/></g><g id="detalles"><ellipse cx="269.49" cy="210.43" rx="3.44" ry="3.52"/><path d="M268.5 215.84v-2.79h2.06v2.79z"/><ellipse cx="287.69" cy="209.35" rx="3.44" ry="3.52"/><path d="M286.85 214.7v-2.79h2.25l-.3.77.06 2.02z"/><ellipse cx="305.07" cy="208.38" rx="3.44" ry="3.52"/><path d="M304.05 213.74v-3.03h2.28v3.27h-2.28zM205.01 222.2l9.71.13h8.78l4.36-.13 2.52-.32 4.79-.69 5.44-.93 7.03-.89 6.7-1.29 7.86-1.97 4.1-1.22 3.23-.45-.04 2.43-2.74-.49-2.22-.01-6.85 1.73-7.79 1.71-6.83 1.18-6.21.74-5.67.75-3.45.4-13.05.22h-5.77l-4.16-.2v-.78zM119.46 234.42l7.85-2.4 9.92-2.97 8.69-3.14 3.3-1.08.91-.98.53.65-1.11.87-5.42 1.94-9.71 3.36-7.76 2.1-.78.32v1.51zM92.37 228.33l1.53.27h1.86l.39-.27.87-.27.57-.39.66-.18h.18l.6-.72.57-.62.98-.54 1.17-.27 1.77-.24h4.8v.71l.15 2.52.59 1.74.49.78.92.87.81.69.9.68 1.11.91 3.87.87-22.06 1.52-4.83-1.23zM125.94 142.42l12.52-4.37 13.97 12.34h1.43l21.16-8.45.72-.18.48.36 6.17 8.27 6.59 8.99-7.13-6.29-8.57-8.09-21.93 8.63-11.45-11.27-17.56 3.9zM159.32 332.34l29-4.58L201.48 342l.45.41 1.3-.36 1.49-.18.45.54v.36l7.64-1 11.77-2.47 1 .09.27.58L237.17 359l1.32 2.4-4.76-5.16-3-3.89-4.2-4.36-3.77-5-12 .83-5.48.2-.44.43-.9.66-.79.49-1.63.9-1.39.76-1.35.42-2.2.51-3.15.3-3.36.12-3.9-.09 1.32-.79 2.05-.71 1.7-.53 1.84-.55 1.51-.61 1.56-.6 1-.42 1-.38a6 6 0 0 0 .5-.43s0-.36 0-.36l-.21-.33-.47-.32-1.18-1.6-1.66-1.79-.72-.79-3.83-4.41-.66-.7-.18-.25h-.59l-11.3-.05-14.85-.2Z"/></g><path id="farola" d="m342.71 212.78-.41-10.05-.27-12.94-.29-11.69-.29-14.61v-4.6h1.82v-.9h-2.09v-2.32h-1.39v2.32l-9.2.04-.15.41-1.91.04-1.28 1.8v.85l7.32-.02-.07-.54-.62-.76.04-.9 5.84.04-.06 4.39-.34 10.13-.45 17.94-.34 9.62-.36 9.14-.02 2.83z"/><circle id="circuloDibujo" cx="235.17" cy="235.49" r="146.05" style="stroke-miterlimit:10;stroke-width:4px;fill:none;stroke:#020502"/><path id="arco_dere" d="M103.52 373.7a214 214 0 0 1-17.74-19.42 205 205 0 0 1-15.58-22.06 164 164 0 0 1-12.83-25.41c-5.37-13.53-7.52-24.48-9.35-34a196 196 0 0 1-3.59-28 187.5 187.5 0 0 1 1.8-37.51 193 193 0 0 1 21.09-62.93c1.65-3 3.11-5.52 4.2-7.31l4.91 3.47c-1 1.83-2.31 4.32-3.83 7.31-1.38 2.72-4.68 9.26-7.67 16.31A171.4 171.4 0 0 0 56.66 188a177 177 0 0 0-4.8 26.37 207 207 0 0 0-1.08 22.89 178 178 0 0 0 .72 20.26 161 161 0 0 0 3.36 20.14 169 169 0 0 0 7 23.85 172 172 0 0 0 8.87 19.66 134 134 0 0 0 11 18.46c1.76 2.42 4.13 5.25 8.87 10.9 6.19 7.39 10.17 11.67 13.54 15.11 1.14 1.16 2.1 2.11 2.76 2.75Z" class="cls-12" data-name="arco dere"/><path id="arco_izq" d="M374.17 367.58c5.62-5.43 5.31-5.76 11.39-13.3a163 163 0 0 0 14.9-22.06 164 164 0 0 0 12.83-25.41c5.37-13.53 7.52-24.48 9.35-34a195 195 0 0 0 3.59-28 187.5 187.5 0 0 0-1.79-37.51 192 192 0 0 0-8.51-34.4c-4.61-13.26-7-19.75-9.87-25.06 0 0-7.39-.48-7.2.24.78 2.95 4.93 8.9 7.91 15.95a194 194 0 0 1 7.92 23.97 176 176 0 0 1 4.91 26.49 196 196 0 0 1 .84 22.65 187 187 0 0 1-1.28 20.26 161.5 161.5 0 0 1-3.35 20.14A166 166 0 0 1 400 321.08a134 134 0 0 1-11 18.46c-1.8 2.46-4 5.84-8.72 11.46a194 194 0 0 1-13.74 14.52c-1.14 1.16-.11 1-.76 1.67Z" class="cls-12" data-name="arco izq"/></g><g id="Nombre"><path d="m124.69 358.9-.47.53-.51.83-.44.59-.24.42v.32l.27.26.34.35.66.56.56.53.46.5.66.49.59.49.23.24.14.32v1.05l.2 1v1.32l-.17.66-.25 1.07-.73 1.38-.76 1.12-1.54 2.67-3.69 5.88-3.59 5.92-4.19 6.77-2.74 4.41-1.39 2.71-2.13 2-1.95.18h-2.11l-1-.32-.78-.3-.78-.49-.41-.34-.23-.17-.68.71-.78.75-.17.47v.44l.21.46.69.39.68.32 3.43 2 7.24 4.3 9 5.48.64.47h.44l.34-.15.1-.39.2-.24.29-.35.27-.3.24-.43-.17-.33-3-2.1-.74-1.19v-3.77l.49-1.26 1-1.26.74-1.76 2.15-4 .49-1.07 1.32-1.79 1.3-2 .53-.22h.69l.32.08.22.29.7.49 3.59 2.42.25.24.15.2v17.45l.14 5.43.54 1.57.73.88 1 1.54 1.12 1.63 2.87 2.52 3.37 2.1 2.42 1.65 1 .39.92-.1.34-.76.38-1-.16-.86-1.22-.9-1.44-2-.41-.69-.29-1.27-.38-2.61v-15.7l-.1-4.14.5-.13.81.05.9-.05 1.22.17 1 .15 1.7.17H149l2-.11 1.25-.17 1.51-.6 1.72-.86 2-1.45 1.66-1.78 1.36-2.27.89-2.27.39-.74.22-2.13-.1-2.19-.58-2.27-1.48-3.23-2.84-3.88-5-4.69-4.75-3.31-8.89-5.18-5.73-3.11-2.71-1.48-2.12-1.16-2-1.46Z" style="fill:#fcfafa"/><path d="m139 372.14-1.56 1.86-1.44 2.27-1.07 1.74-2.22 3.54-1.38 2.39-2.28 3-1.57 2.56-.9 1.77v.53l.44.73 2.52 1.59 2.37 1.54 3.13 1.65 2.61 1.05 1.92.24h2.37l1.26-.78 2.15-1.2 2.07-1.92 1.83-2.21 1.11-1.53.63-2.52.51-1.53v-4.64l-.51-1.56-1.53-2.16-1.92-2.19-2.73-1.88-3.02-1.74-2.04-.99z" class="cls-14"/><ellipse cx="203.19" cy="422.47" class="cls-12" rx="31.15" ry="27.78"/><ellipse cx="203.19" cy="422.47" class="cls-14" rx="19.15" ry="25.13"/><path d="m264.98 441.9.08.31v1.5l-.12 1.02-.04.76-1.1 1.07-1.23.98-1.71.81-1.57.7.79 2.58 1.22-.08 1.91-.44 2.15-.69 13.66-3.77-.49-2.77-1.85.34h-1.39l-1.83-.2-1.36-.78-1.17-1.02-.9-1.26-.64-2.13-.6-2-.7-2.73-1.18-3.79-5.47-21.69 49.98 29.76 2.55-.56 2.28-.84-.39-2.18-5.67-18.61-5.91-21.5-.18-1.71v-1.39l.31-.95.63-1.12 1.89-1.71 2.11-1.21.81-.36-.72-2.52-19.24 4.81.81 3.41 1.22-.13 1.3-.22 1.3-.18h.9l.72.36.9.4.85 1.08.59.81.67 2.07 6.66 24.99-41.94-24.77-16.99 4.14.81 3.19 1.62-.18 1.66-.36 1.35-.05 2.02.77zM348.28 369.47a14 14 0 0 0-4.31-2.16A14.6 14.6 0 0 0 337 367a12 12 0 0 0-6.74 3.06 9.08 9.08 0 0 0-2.69 5 5.77 5.77 0 0 0 .17 3 6.36 6.36 0 0 0 3.15 3.24c3.22 1.79 6.71.84 17.35-.23a62 62 0 0 1 8.59-.18 15.7 15.7 0 0 1 5.88 1.17 11 11 0 0 1 3.87 2.65 12.7 12.7 0 0 1 2.67 3.51 17.8 17.8 0 0 1 1.77 5.69c.63 5.64-2.58 10.33-3.18 11.21-2.12 3.09-4.57 4.65-7.61 6.59a40.7 40.7 0 0 1-9.8 4.53l-.36.12-.27.57-.21.72-.47.61-.79.6-.75.07-.71-.54-9.51-9.61-.09-.42.09-.51 1.53-1.29h.39l.66.3c.23.19.57.47 1 .78a16.6 16.6 0 0 0 9.14 3.62c4.19.19 7.26-1.63 9.5-3A7.82 7.82 0 0 0 363 397a8 8 0 0 0-3.29-3.39 7.8 7.8 0 0 0-3.21-.84 82 82 0 0 0-11.5.23c-7.32.74-9.43 1-12.81.43a9.2 9.2 0 0 1-3.26-.82 17 17 0 0 1-2.42-1.58 13.5 13.5 0 0 1-1.95-1.74 32 32 0 0 1-2.4-3 9 9 0 0 1-1.08-2.4c-1-4.2.4-8.32 2.46-11.38a23 23 0 0 1 1.59-2.43 22 22 0 0 1 2.75-2.46c.79-.63 1.3-.94 1.47-1.08a22.8 22.8 0 0 1 8.09-4l3-1.5 1.17-1.11.59-.87.49-.21.81.81 1 .88 6 6.64.6.9.12.75-1 .66-.9.36h-.72ZM91.3 73.32a47 47 0 0 0-5.64 3.48 41.8 41.8 0 0 0-10.43 10.42 33 33 0 0 0-6.35 18.1 29.1 29.1 0 0 0 4.32 16.42 25.5 25.5 0 0 0 11.26 10.19 26 26 0 0 0 16 1.44c15.23-3 22.65-18.22 24.09-19.75l5.6-5.6a2.7 2.7 0 0 0 .27-.69V106l-.72-1-4.46-7.22-2.19-4-.75-.15-.69.42-.81.87-.39.89v1.59l.66 2.88.63 2.22.15 2.15v3.26l-.42 2.16-1 2.63-1 2a24 24 0 0 1-2.3 2.64s-5.12 4.48-7.2 4.88c-4 .77-12.64 1.74-20.76-3.08-2.53-1.5-7.55-4.48-10.4-10.79a20.2 20.2 0 0 1-1.44-13.51c.25-1 2.75-9.92 11.33-12.89a17.4 17.4 0 0 1 9.34-.48l.81.42 1.32.42 1.91.15 1.44-.09.78-.42.63-1 .06-1.23-.39-.78-.6-.63-8.69-7.52-.72-.48h-.65l-.63.15-.54.69-.15 1.11-.45.78ZM131 78.71a5.35 5.35 0 0 1-1.62-2c-1.7-3.73.55-7.81 1.14-8.87 1.47-2.67 3.6-4.14 7.85-7.08a17.6 17.6 0 0 1 3.72-2 11.5 11.5 0 0 1 5.09-1 11.1 11.1 0 0 1 4 1 10.2 10.2 0 0 1 3.17 2 9.6 9.6 0 0 1 2.1 2.88l6.65 12.23 1 1.8.35.49.34.36.41.29.42.16h.41l.81-.11.63-.54.71-.49.43-.41.38-.06.25.24.23.41.15.69v.63l-.15 1.31-.42 1.36-1.15 2.83a8.7 8.7 0 0 1-1.14 1.44 10.26 10.26 0 0 1-4.66 2.27 5.14 5.14 0 0 1-3.25-.4l-2-2.16-.25 2a8.5 8.5 0 0 1-.38 1.17 11.94 11.94 0 0 1-3.12 4.41 10.7 10.7 0 0 1-4.55 3 12.9 12.9 0 0 1-4.05.54 9.45 9.45 0 0 1-3.89-.63c-2.83-1.11-4.22-4.6-4.5-7.1a10.3 10.3 0 0 1 1.29-6.11l1.71-2.43 3-3.55 3.62-4 1.8-2.37.33-.84-.06-.78-.33-.59-2.27-3.7-1.85-1.5-1.41-.18-2 .33-2.07 1.14-1 1.14-.66 1.2v1.14l.54 1.28.75 1.29.36.75-.12.66-.45 1-1 .84-4.19 4.34-.54.3Z" class="cls-12"/><path d="M149 74.46a4.6 4.6 0 0 0-1 .75c-.5.61-1.21 1.31-1.83 2.08a15 15 0 0 0-1.6 2.71c-.1.22-1.77 3.78.24 6.59a6.12 6.12 0 0 0 4.26 2.41 5.3 5.3 0 0 0 3.45-.66 5.83 5.83 0 0 0 2.36-5.66l-5.41-8.4Z" class="cls-14"/><path d="m180.22 74.7-.29-2.31-.75-3-1.28-4.25-2.83-8.93-1.41-4.88h-.61l-.76.11s-.86.39-.93.39-1.12.56-1.12.56l-1 .2h-1.06l-.63-.58-.2-.59.23-.63.56-.69 1.77-1.53 1.64-1.46.36-.81-.16-1.62-.29-2.85.09-3.64.86-3 1.1-4.34 1.79-3.55a21.7 21.7 0 0 1 2.27-3.08 21.2 21.2 0 0 1 7.35-5.22 22.7 22.7 0 0 1 8.36-1.57 5.4 5.4 0 0 1 3.1.86 4.7 4.7 0 0 1 1.5 1.7c1.17 2.28 0 5-1.1 6.36a3 3 0 0 1-1.84 1.31c-.9.1-1.56-.5-2.34-1a14.6 14.6 0 0 0-4.47-1.88 8.75 8.75 0 0 0-7 1.3 7.2 7.2 0 0 0-2 2.45l-.13 1.35-.18 2.43.49 3.64 1.65 4.52.92 2.94 1.46-.09 1.93-.54 4.46-1 .56.48 1 2.41.09.67v.31l-.16.37-.6.13-1.46.4-1.35.41-4.05 1-.45.36v.54l.18.65.32.87 1.82 6.41 1.19 3.5 2.18 7.4 1.1 2.85.76 1.42 1.08.54 1.49.38 1 .11h1l.54.56.27.9.09.72v.69l-.9.5-1.64.4-15.29 4.39-.9-.09-.69-.57-.07-1.37.29-.87 1.35-1.1 1.46-.81.27-.79ZM213.29 31.91l.66-1.14 1.89-2s2.27-2.47 2.18-2.47 1.92-2.3 1.92-2.3l2.65-3.32c.94-1 2-1.89 2.59-2.44a3.9 3.9 0 0 1 1-.78 3.5 3.5 0 0 1 2.28-.21 3.25 3.25 0 0 1 1.62 1.08 3.5 3.5 0 0 1 .66 1.65 4.1 4.1 0 0 1-.06 2 3.9 3.9 0 0 1-1 1.59c-1.14 1.09-6.46 4.59-13.85 9.05l-.19.08-.28.08h-1l-.26-.08-.27-.07-.22-.1-.22-.19-.06-.21ZM238.55 52.22a17.75 17.75 0 0 0-3.3-9.29 16.63 16.63 0 0 0-8.93-6.41c-8.61-2.35-15.68 4-16.42 4.74a19.26 19.26 0 0 0-5.81 11.38A19 19 0 0 0 206 63.91a17.25 17.25 0 0 0 8.21 8.09c6.44 2.86 12.47.38 13.91-.24a19.06 19.06 0 0 0 9.47-9.17l.12-.7-.14-.5-.29-.33-.4-.12-.45.14-.21.18-.31.65a9 9 0 0 1-.52.81c-2.33 3.24-6.78 4.64-10.58 4.31a9.9 9.9 0 0 1-3.08-.67 11.2 11.2 0 0 1-5.82-6 12.65 12.65 0 0 1-1-6.34l23.61-1.46Z" class="cls-12"/><path d="M213.89 51.21c4.37-.2 8.5-.94 12.87-1.14V48.4a11.3 11.3 0 0 0-1.38-4.85c-1.31-2.28-2-2.25-3.14-2.68s-4.13 0-4.72.21c-1.31.42-1.61.94-2.44 2.41-.31.55-.55 1-.73 1.37a5 5 0 0 0-.29 1.09 4.3 4.3 0 0 0-.17 1Z" class="cls-14"/><path d="m249.4 50.25 22.29 3.41v8.54l-23.1-3.32zM296.83 29.25l.61.45.68.41.76.58.63.5 1 .9.58.85.18 1.26v2.47l-.85 2.11L290.39 61l-4.41 10a6.5 6.5 0 0 1-.9.58 8.83 8.83 0 0 1-6.77.28 6 6 0 0 1-.67-.23l-.57.53-.39.77-.32.67-.18.81.41.36 1.35.5 30.11 13.3a25 25 0 0 0 2.74.54c3.12.45 7.21 1 11.24-.76a13.42 13.42 0 0 0 7-18 15.4 15.4 0 0 0-5.03-6.44l-.24-.56v-.28l.12-.42.27-.36h.45l.37.16a7 7 0 0 0 1.07.36 9.47 9.47 0 0 0 8.67-2.81 9.83 9.83 0 0 0 2.42-4.71 11.67 11.67 0 0 0-2-9 17.8 17.8 0 0 0-3-2.94 42 42 0 0 0-6-4.31 91 91 0 0 0-10.64-5.36l-16.93-7.23-.28-.07H298l-.25.11-.23.28-.26.42-.31.57-.19.39-.1.28v.28Z" class="cls-12"/><path d="m313.67 36.49-7.95 17c.22.19.59.5 1.06.85 1.06.79 5.74 4.25 11.61 3.55a8 8 0 0 0 4.36-1.48 8.26 8.26 0 0 0 2.74-4.81c.31-1.18 1.36-5.14-.76-8.45-1.11-1.74-2.79-2.64-6.16-4.45a37 37 0 0 0-4.18-1.93ZM304.5 56.58 296.05 75a7 7 0 0 0 0 .9c.25 3.29 3.2 5.43 3.87 5.89a10.6 10.6 0 0 0 6.87 1.61 11.55 11.55 0 0 0 5.21-1.47 12.56 12.56 0 0 0 5.53-7.1 12.46 12.46 0 0 0 .23-8.45c-2-5.49-8.33-7.88-9-8.09Z" class="cls-14"/><path d="M346.07 84.54a5.36 5.36 0 0 1 1.44-2.16c3-2.78 7.6-1.89 8.79-1.66 3 .58 5.05 2.14 9.15 5.28a17.8 17.8 0 0 1 3.09 2.9 11.8 11.8 0 0 1 2.54 4.53 11 11 0 0 1 .27 4.14 10 10 0 0 1-.9 3.63 9.5 9.5 0 0 1-2.08 2.88l-9.58 10.11-1.39 1.52-.36.49-.24.43-.15.48v.45l.08.4.36.73.71.44.69.53.51.28.19.34-.16.31-.32.34-.61.37-.6.19-1.29.25h-1.45l-3.05-.22a8.6 8.6 0 0 1-1.72-.64 10.13 10.13 0 0 1-3.6-3.72 5.06 5.06 0 0 1-.62-3.23l1.42-2.61-2 .4h-1.23a12.1 12.1 0 0 1-5.16-1.6 10.7 10.7 0 0 1-4.25-3.4 13 13 0 0 1-1.77-3.69 9.4 9.4 0 0 1-.6-3.89c.18-3 3.08-5.44 5.36-6.47a10.35 10.35 0 0 1 6.22-.67l2.83.88 4.31 1.75 4.89 2.22 2.81 1 .9.05.72-.29.47-.5 2.88-3.27.85-2.23-.27-1.39-.93-1.81-1.72-1.62-1.38-.56-1.39-.23-1.09.32-1.06.91-1 1.11-.6.58-.67.09-1.08-.13-1.09-.65-5.43-2.65-.45-.42Z" class="cls-12"/><path d="M354.74 98.73v.73l-6.74 8.28-.79.11a9.35 9.35 0 0 1-4.65-.36 5 5 0 0 1-2.74-2.36c-1-2.09.26-4.3.56-4.83a7.35 7.35 0 0 1 3.35-3c4.61-2.2 9.86.74 10.56 1.15Z" class="cls-14"/><path d="m383.34 110.57-.81.49-.36.63v1.08l.36 1 .23 1.26v1.58l-.59 1.12-17.53 11.69h-.72a5.4 5.4 0 0 1-2.15-.27c-.8-.42-.52-1.09-1.35-1.58-.51-.29-1.4-.52-1.89 0a1.47 1.47 0 0 0-.27 1.26l10.56 14.83a1.2 1.2 0 0 0 .41.67 1.47 1.47 0 0 0 1.48 0 1.76 1.76 0 0 0 .94-1.7c-.07-.7-.64-.84-.94-1.49s-.32-1.46.63-3l11.49-8.35a5.7 5.7 0 0 1 1-.73 10 10 0 0 1 1.66-.45 9 9 0 0 1 1.43-.12 8 8 0 0 1 1.67.18 6.7 6.7 0 0 1 2.29.75c1.47.85 2.87 3.53 3 7.19l.15.4.34.14h.72l7.24-1.21.54-.27V135c-.06-.23-.15-.57-.25-1-1.07-4-1.61-6-2.42-6.73a6.44 6.44 0 0 0-4.1-1.2 9.4 9.4 0 0 0-3.15.39h-4.15l-.33-.18-.06-.24v-.27l.09-.18 7.37-5.06.24-.36.14-.49v-.42l-.32-.28-4.06-3.11-5.68-3.84-1.49-1.42-.39-.09h-.93Z" class="cls-12"/></g></g></g></svg>