<svg xmlns="http://www.w3.org/2000/svg" viewBox="0 0 470.73 472.9"><defs><style>.cls-1,.cls-14{fill:#221916;}.cls-1{stroke:#fcfafa;}.cls-1,.cls-11,.cls-2,.cls-5,.cls-6,.cls-7,.cls-8{stroke-miterlimit:10;}.cls-1,.cls-11,.cls-8{stroke-width:4px;}.cls-11,.cls-2,.cls-5,.cls-6,.cls-7,.cls-8{fill:none;}.cls-2{stroke:#fff;}.cls-2,.cls-7{stroke-width:3px;}.cls-3{fill:#eaac3a;}.cls-4{fill:#86bdd5;}.cls-5{stroke:#000;}.cls-6,.cls-7,.cls-8{stroke:#010201;}.cls-6{stroke-width:2px;}.cls-9{fill:#020502;}.cls-10{fill:#000500;}.cls-11{stroke:#020502;}.cls-12{fill:#fff;}.cls-13{fill:#fcfafa;}</style></defs><g id="Capa_2" data-name="Capa 2"><g id="Capa_4" data-name="Capa 4"><g id="Capa_1-2" data-name="Capa 1"><g id="circuloExterno"><ellipse class="cls-1" cx="235.37" cy="236.09" rx="233.37" ry="234.09"/></g><g id="circuloInterno"><ellipse class="cls-2" cx="236.06" cy="235.26" rx="150.87" ry="151.98"/></g><g id="sol"><path class="cls-3" d="M88.73,246.4c4.06,12.13,38.51,10.62,59.29,9.8,54.39-2.13,81.58-3.2,97.75-2.45,25.54,1.18,52.08,4.5,78.53,2.94,13.85-.82,15.89-2.27,27.87-2,14.18.38,22.69,2.72,26.9-2.46,1.84-2.25,2-5.94,2.15-13.25A107.67,107.67,0,0,0,380,219.53c-1.42-8.91-3-19-7.61-31.85a151.19,151.19,0,0,0-25.8-45.28,147.7,147.7,0,0,0-35.49-31.09,143.72,143.72,0,0,0-133.94-9.76,152.79,152.79,0,0,0-42.8,28.78,109.65,109.65,0,0,0-16.08,18.32c-2.57,3.73-6.17,10.73-13.26,24.58-7.41,14.47-8.4,16.87-9.32,19.49A115.79,115.79,0,0,0,90.57,214a166.39,166.39,0,0,0-2,21.85C88.41,242.06,88.31,245.18,88.73,246.4Z"/></g><g id="mar"><path class="cls-4" d="M90,241.73c3.91-4.53,13.56-.67,25.89,1.2,7.94,1.2,9.21.42,30.92,0,24.76-.47,33.12.38,57.77.47,11.53.06,31.89-.6,72.65-1.91,31.56-1,64.33,7.22,94.69-1.43,1.46-.42,7.75-2.35,9.84.23,1.18,1.48.45,3.75-.48,7.44-1.23,4.89-1.65,10-2.87,14.87-4.62,18.36-4.29,17.36-4.56,18.21C370.69,290.74,367,297.72,363,305a154.39,154.39,0,0,1-14.87,23.49,129.81,129.81,0,0,1-30.45,27.81c-8.11,5.53-26.45,17.71-53.21,22.54-17.47,3.15-31.47,1.89-41.72,1A156.23,156.23,0,0,1,189,373.6a144.75,144.75,0,0,1-55.61-32.36c-17.25-16.18-25.83-32.25-31.16-42.43,0,0-7.36-14.09-13.41-48.9C88.44,248,87.84,244.18,90,241.73Z"/></g><g id="Dibujo"><line class="cls-5" x1="172.45" y1="364.35" x2="302.9" y2="364.93"/><line class="cls-6" x1="147.87" y1="350.44" x2="321.23" y2="351.62"/><line class="cls-6" x1="130.27" y1="337.12" x2="340.08" y2="337.12"/><line class="cls-7" x1="117.87" y1="323.17" x2="351.51" y2="323.79"/><line class="cls-7" x1="111.17" y1="309.76" x2="360.71" y2="310.19"/><line class="cls-8" x1="366.49" y1="296.79" x2="103.49" y2="296.03"/><line class="cls-8" x1="98.24" y1="282.31" x2="373.04" y2="283.27"/><polygon class="cls-9" points="94.22 264.2 124.44 264.2 179.77 264.2 342.62 264.69 375.53 264.69 375.29 274.45 368.37 274.45 344.77 274.09 300.14 273.82 209.79 273.51 159.27 273.2 104.39 272.93 95.22 272.93 94.22 264.2"/><polygon class="cls-9" points="90.37 250 131.82 250 170.65 250.46 203.37 250.46 246.87 250.46 281.11 250.46 318.37 250.78 348.1 250.78 368.78 250.78 379.56 250.78 379.56 260.67 375.69 260.8 360.09 260.8 332.64 260.8 299.16 260.8 283 260.56 264.36 260.38 241.18 260.35 223.15 260.2 204.93 260.2 184.34 260.09 158.76 259.98 137.11 259.91 118.56 259.8 100.15 259.69 91.62 259.55 90.37 250"/><polygon points="118.27 234.24 90.37 234.24 89.11 246.35 118.27 246.35 142.87 246.35 173.52 246.58 203.74 246.87 231.46 246.95 262.56 246.95 286.12 246.95 310.48 247.29 342.9 247.29 373.46 247.56 382.67 247.56 383.84 234.71 382.18 234.53 378.93 234.24 344 234.24 320.37 234.48 302.45 234.24 275.42 234.24 251.38 234.24 220.41 233.93 196.74 233.93 178.99 233.09 168.03 233.93 153.63 233.93 118.27 234.24"/><polygon points="379.56 207.81 375.53 208.77 374.62 209.13 370.49 209.46 357.49 210.22 342.75 211.02 336.24 211.61 322.35 212.46 312.81 212.88 301.85 213.31 285.94 214.41 268.82 215.26 264.63 215.48 262.78 231.35 262.78 231.59 271.09 231.59 283.34 231.59 294.07 231.64 304.87 231.64 315.77 231.64 324.84 231.64 333.93 231.64 341.19 231.64 350.28 231.64 359.35 231.64 368.44 231.64 375.71 231.64 378.89 231.64 379.56 207.81"/><path class="cls-10" d="M149.83,223.48c0,.05.39.72.93,1.67s1.25,2.09,2,3.13a8.31,8.31,0,0,0,2.18,2.43,9.21,9.21,0,0,0,1.8.68,28.52,28.52,0,0,0,4,.5c.56,0,.67.24,1,.79s-.17,1.43.31,1.45,3.65.44,4.12.45c11.33.51,28,.08,32.4.08l.34-.46v-1.43c.06-.06.89-.18,1-.26a8.61,8.61,0,0,0,1-.51l1.13-.87s.83-1,.91-1c.4-.42.67-.94,1.07-1.36,0-.07.56-1,.56-1a3.88,3.88,0,0,0,.38-1s.15-.75.17-.77c.05-2.31.13-4.63.18-6.94L204,219s0,2.24,0,2.26h-.73v1.84l-.64.16-1.47.33-1.55.53-2.89.6-4.29,1.14-3.45.77-5.75.61-.31-.12-.12,0,0-6.65,0-11.71V196.61l0-7.78h-1.27l-.05,3.51,0,10.14,0,11.14v12.67l0,.68-1.26.16-1.45.07,0-1.4H178l-.05-2.81-.67,0-.13,2.6v.27l-2.69,0v1.51l-1.37.06-3-.26-1.32-.24-2.19-.21-1.07-.29-2.16-.13L160.8,226l-1.57-.22-1.34-.2-1.31-.22-.66-.21-1.32-.2-.86-.24-.91-.25-.83-.2-1.31-.24Z"/></g><g id="detalles"><ellipse cx="269.49" cy="210.43" rx="3.44" ry="3.52"/><polygon points="268.5 215.84 268.5 213.05 270.56 213.05 270.56 213.43 270.56 215.84 268.5 215.84"/><ellipse cx="287.69" cy="209.35" rx="3.44" ry="3.52"/><polygon points="286.85 214.7 286.85 211.91 289.1 211.91 288.8 212.68 288.86 214.7 286.85 214.7"/><ellipse cx="305.07" cy="208.38" rx="3.44" ry="3.52"/><polygon points="304.05 213.74 304.05 210.71 306.33 210.71 306.33 213.98 304.05 213.98 304.05 213.74"/><polygon points="205.01 222.2 214.72 222.33 223.5 222.33 227.86 222.2 230.38 221.88 235.17 221.19 240.61 220.26 247.64 219.37 254.34 218.08 262.2 216.11 266.3 214.89 269.53 214.44 269.49 216.87 266.75 216.38 264.53 216.37 257.68 218.1 249.89 219.81 243.06 220.99 236.85 221.73 231.18 222.48 227.73 222.88 214.68 223.1 208.91 223.1 204.75 222.9 204.75 222.12 205.01 222.2"/><polygon points="119.46 234.42 127.31 232.02 137.23 229.05 145.92 225.91 149.22 224.83 150.13 223.85 150.66 224.5 149.55 225.37 144.13 227.31 134.42 230.67 126.66 232.77 125.88 233.09 125.88 234.6 119.46 234.42"/><polygon points="92.37 228.33 93.9 228.6 94.59 228.6 94.98 228.6 95.76 228.6 96.15 228.33 97.02 228.06 97.59 227.67 98.25 227.49 98.43 227.49 99.03 226.77 99.6 226.15 100.58 225.61 101.75 225.34 103.52 225.1 105.02 225.1 106.43 225.1 107.69 225.1 108.32 225.1 108.32 225.81 108.47 228.33 109.06 230.07 109.55 230.85 110.47 231.72 111.28 232.41 112.18 233.09 113.29 234 117.16 234.87 95.1 236.39 90.27 235.16 92.37 228.33"/><polygon points="125.94 142.42 138.46 138.05 152.43 150.39 153.86 150.39 175.02 141.94 175.74 141.76 176.22 142.12 182.39 150.39 188.98 159.38 181.85 153.09 173.28 145 151.35 153.63 139.9 142.36 122.34 146.26 125.94 142.42"/><path d="M159.32,332.34l29-4.58L201.48,342l.45.41,1.3-.36,1.49-.18.45.54v.36l7.64-1,11.77-2.47,1,.09.27.58L237.17,359l1.32,2.4-4.76-5.16-3-3.89-4.2-4.36-3.77-5-12,.83-5.48.2-.44.43-.9.66-.79.49-1.63.9-1.39.76-1.35.42-2.2.51-3.15.3-3.36.12-3.9-.09,1.32-.79,2.05-.71,1.7-.53,1.84-.55,1.51-.61,1.56-.6,1-.42,1-.38a6.37,6.37,0,0,0,.5-.43s0-.36,0-.36l-.21-.33-.47-.32-1.18-1.6-1.66-1.79-.72-.79-3.83-4.41-.66-.7-.18-.25-.59,0-11.3-.05L163,332.7Z"/></g><polygon id="farola" points="342.71 212.78 342.3 202.73 342.03 189.79 341.74 178.1 341.45 163.49 341.45 158.89 343.27 158.89 343.27 157.99 341.18 157.99 341.18 155.67 339.79 155.67 339.79 157.99 330.59 158.03 330.44 158.44 328.53 158.48 327.25 160.28 327.25 161.13 334.57 161.11 334.5 160.57 333.88 159.81 333.92 158.91 339.76 158.95 339.7 163.34 339.36 173.47 338.91 191.41 338.57 201.03 338.21 210.17 338.19 213 342.71 212.78"/><g id="circuloDibujo"><circle class="cls-11" cx="235.17" cy="235.49" r="146.05"/></g><path id="arco_dere" data-name="arco dere" class="cls-12" d="M103.52,373.7a213.78,213.78,0,0,1-17.74-19.42A204.63,204.63,0,0,1,70.2,332.22a164,164,0,0,1-12.83-25.41c-5.37-13.53-7.52-24.48-9.35-34a196.34,196.34,0,0,1-3.59-28,187.46,187.46,0,0,1,1.8-37.51,193,193,0,0,1,21.09-62.93c1.65-3,3.11-5.52,4.2-7.31l4.91,3.47c-1,1.83-2.31,4.32-3.83,7.31-1.38,2.72-4.68,9.26-7.67,16.31a171.42,171.42,0,0,0-8.27,23.85,177.34,177.34,0,0,0-4.8,26.37,207.19,207.19,0,0,0-1.08,22.89,178.26,178.26,0,0,0,.72,20.26,161.07,161.07,0,0,0,3.36,20.14,169.07,169.07,0,0,0,7,23.85,171.93,171.93,0,0,0,8.87,19.66,134,134,0,0,0,11,18.46c1.76,2.42,4.13,5.25,8.87,10.9,6.19,7.39,10.17,11.67,13.54,15.11,1.14,1.16,2.1,2.11,2.76,2.75Z"/><path id="arco_izq" data-name="arco izq" class="cls-12" d="M374.17,367.58c5.62-5.43,5.31-5.76,11.39-13.3a162.88,162.88,0,0,0,14.9-22.06,164,164,0,0,0,12.83-25.41c5.37-13.53,7.52-24.48,9.35-34a194.89,194.89,0,0,0,3.59-28,187.54,187.54,0,0,0-1.79-37.51,192.23,192.23,0,0,0-8.51-34.4c-4.61-13.26-7-19.75-9.87-25.06,0,0-7.39-.48-7.2.24.78,2.95,4.93,8.9,7.91,15.95A193.92,193.92,0,0,1,414.69,188a176,176,0,0,1,4.91,26.49,195.5,195.5,0,0,1,.84,22.65,186.91,186.91,0,0,1-1.28,20.26,161.45,161.45,0,0,1-3.35,20.14A166,166,0,0,1,400,321.08a133.8,133.8,0,0,1-11,18.46C387.2,342,385,345.38,380.28,351a193.45,193.45,0,0,1-13.74,14.52c-1.14,1.16-.11,1-.76,1.67Z"/></g><g id="Nombre"><path class="cls-13" d="M124.69,358.9l-.47.53-.51.83-.44.59-.24.42v.32l.27.26.34.35.66.56.56.53.46.5.66.49.59.49.23.24.14.32v1.05l.2,1v1.32l-.17.66-.25,1.07-.73,1.38-.76,1.12-1.54,2.67L120,381.48l-3.59,5.92-4.19,6.77-2.74,4.41-1.39,2.71-2.13,2-1.95.18H101.9l-1-.32-.78-.3-.78-.49-.41-.34-.23-.17-.68.71-.78.75-.17.47v.44l.21.46.69.39.68.32,3.43,2,7.24,4.3,9,5.48.64.47h.44l.34-.15.1-.39.2-.24.29-.35.27-.3.24-.43-.17-.33-3-2.1-.74-1.19,0-2.06,0-1.71.49-1.26,1-1.26.74-1.76,2.15-4,.49-1.07,1.32-1.79,1.3-2,.53-.22.39,0h.3l.32.08.22.29.7.49,3.59,2.42.25.24.15.2v17.45l.14,5.43.54,1.57.73.88,1,1.54,1.12,1.63,2.87,2.52,3.37,2.1,2.42,1.65,1,.39.92-.1.34-.76.38-1-.16-.86-1.22-.9-1.44-2-.41-.69-.29-1.27-.38-2.61v-5.31l0-4.94,0-5.45-.1-4.14.5-.13.81.05.9-.05,1.22.17,1,.15,1.7.17H149l2-.11,1.25-.17,1.51-.6,1.72-.86,2-1.45,1.66-1.78L160.5,397l.89-2.27.39-.74.22-2.13-.1-2.19-.58-2.27-1.48-3.23L157,380.29l-5-4.69-4.75-3.31-8.89-5.18L132.63,364l-2.71-1.48-2.12-1.16-2-1.46Z"/><polygon class="cls-14" points="139 372.14 137.44 374 136 376.27 134.93 378.01 132.71 381.55 131.33 383.94 129.05 386.94 127.48 389.5 126.58 391.27 126.58 391.8 127.02 392.53 129.54 394.12 131.91 395.66 135.04 397.31 137.65 398.36 139.57 398.6 141.94 398.6 143.2 397.82 145.35 396.62 147.42 394.7 149.25 392.49 150.36 390.96 150.99 388.44 151.5 386.91 151.5 382.27 150.99 380.71 149.46 378.55 147.54 376.36 144.81 374.48 141.79 372.74 139.75 371.75 139 372.14"/><ellipse class="cls-12" cx="203.19" cy="422.47" rx="31.15" ry="27.78"/><ellipse class="cls-14" cx="203.19" cy="422.47" rx="19.15" ry="25.13"/><polygon class="cls-12" points="264.98 441.9 265.06 442.21 265.06 442.82 265.06 443.29 265.06 443.71 264.94 444.73 264.9 445.49 263.8 446.56 262.57 447.54 260.86 448.35 259.29 449.05 260.08 451.63 261.3 451.55 263.21 451.11 265.36 450.42 279.02 446.65 278.53 443.88 276.68 444.22 275.29 444.22 273.46 444.02 272.1 443.24 270.93 442.22 270.03 440.96 269.39 438.83 268.79 436.83 268.09 434.1 266.91 430.31 261.44 408.62 311.42 438.38 313.97 437.82 316.25 436.98 315.86 434.8 310.19 416.19 304.28 394.69 304.1 392.98 304.1 391.59 304.41 390.64 305.04 389.52 306.93 387.81 309.04 386.6 309.85 386.24 309.13 383.72 289.89 388.53 290.7 391.94 291.92 391.81 293.22 391.59 294.52 391.41 295.42 391.41 296.14 391.77 297.04 392.17 297.89 393.25 298.48 394.06 299.15 396.13 305.81 421.12 263.87 396.35 246.88 400.49 247.69 403.68 249.31 403.5 250.97 403.14 252.32 403.09 254.34 403.86 264.98 441.9"/><path class="cls-12" d="M348.28,369.47a14,14,0,0,0-4.31-2.16A14.59,14.59,0,0,0,337,367a12,12,0,0,0-6.74,3.06,9.08,9.08,0,0,0-2.69,5,5.77,5.77,0,0,0,.17,3,6.36,6.36,0,0,0,3.15,3.24c3.22,1.79,6.71.84,17.35-.23a62,62,0,0,1,8.59-.18,15.69,15.69,0,0,1,5.88,1.17,11,11,0,0,1,3.87,2.65,12.74,12.74,0,0,1,2.67,3.51,17.78,17.78,0,0,1,1.77,5.69c.63,5.64-2.58,10.33-3.18,11.21-2.12,3.09-4.57,4.65-7.61,6.59a40.72,40.72,0,0,1-9.8,4.53l-.36.12-.27.57-.21.72-.47.61-.79.6-.75.07-.71-.54-9.51-9.61-.09-.42.09-.51,1.53-1.29h.39l.66.3c.23.19.57.47,1,.78a16.6,16.6,0,0,0,9.14,3.62c4.19.19,7.26-1.63,9.5-3A7.82,7.82,0,0,0,363,397a8,8,0,0,0-3.29-3.39,7.82,7.82,0,0,0-3.21-.84A82.37,82.37,0,0,0,345,393c-7.32.74-9.43,1-12.81.43a9.24,9.24,0,0,1-3.26-.82,16.76,16.76,0,0,1-2.42-1.58,13.53,13.53,0,0,1-1.95-1.74,31.59,31.59,0,0,1-2.4-3,9,9,0,0,1-1.08-2.4c-1-4.2.4-8.32,2.46-11.38a22.73,22.73,0,0,1,1.59-2.43,21.79,21.79,0,0,1,2.75-2.46c.79-.63,1.3-.94,1.47-1.08a22.79,22.79,0,0,1,8.09-4l3-1.5,1.17-1.11.59-.87.49-.21.81.81,1,.88,6,6.64.6.9.12.75-1,.66-.9.36-.72,0Z"/><path class="cls-12" d="M91.3,73.32a46.68,46.68,0,0,0-5.64,3.48A41.81,41.81,0,0,0,75.23,87.22a33,33,0,0,0-6.35,18.1,29.08,29.08,0,0,0,4.32,16.42,25.52,25.52,0,0,0,11.26,10.19,26,26,0,0,0,16,1.44c15.23-3,22.65-18.22,24.09-19.75l5.6-5.6a2.72,2.72,0,0,0,.27-.69V106l-.72-1-4.46-7.22-2.19-4-.75-.15-.69.42-.81.87-.39.89,0,1.59.66,2.88.63,2.22.15,2.15,0,2,0,1.26-.42,2.16-1,2.63-1,2a24.17,24.17,0,0,1-2.3,2.64s-5.12,4.48-7.2,4.88c-4,.77-12.64,1.74-20.76-3.08-2.53-1.5-7.55-4.48-10.4-10.79a20.2,20.2,0,0,1-1.44-13.51c.25-1,2.75-9.92,11.33-12.89A17.4,17.4,0,0,1,98,81.47l.81.42,1.32.42,1.91.15,1.44-.09.78-.42.63-1,.06-1.23-.39-.78-.6-.63-8.69-7.52-.72-.48H93.9l-.63.15-.54.69-.15,1.11-.45.78Z"/><path class="cls-12" d="M131,78.71a5.35,5.35,0,0,1-1.62-2c-1.7-3.73.55-7.81,1.14-8.87,1.47-2.67,3.6-4.14,7.85-7.08a17.59,17.59,0,0,1,3.72-2,11.49,11.49,0,0,1,5.09-1,11.09,11.09,0,0,1,4,1,10.23,10.23,0,0,1,3.17,2,9.63,9.63,0,0,1,2.1,2.88l6.65,12.23,1,1.8.35.49.34.36.41.29.42.16.41,0,.81-.11.63-.54.71-.49.43-.41.38-.06.25.24.23.41.15.69v.63l-.15,1.31L169.05,82l-1.15,2.83a8.67,8.67,0,0,1-1.14,1.44,10.26,10.26,0,0,1-4.66,2.27,5.14,5.14,0,0,1-3.25-.4l-2-2.16-.25,2a8.49,8.49,0,0,1-.38,1.17,11.94,11.94,0,0,1-3.12,4.41,10.69,10.69,0,0,1-4.55,3,12.86,12.86,0,0,1-4.05.54,9.45,9.45,0,0,1-3.89-.63c-2.83-1.11-4.22-4.6-4.5-7.1a10.29,10.29,0,0,1,1.29-6.11l1.71-2.43,3-3.55,3.62-4,1.8-2.37.33-.84-.06-.78-.33-.59L145.2,65l-1.85-1.5-1.41-.18-2,.33-2.07,1.14-1,1.14-.66,1.2,0,1.14.54,1.28.75,1.29.36.75-.12.66-.45,1-1,.84-4.19,4.34-.54.3Z"/><path class="cls-14" d="M149,74.46a4.56,4.56,0,0,0-1,.75c-.5.61-1.21,1.31-1.83,2.08A15.06,15.06,0,0,0,144.57,80c-.1.22-1.77,3.78.24,6.59A6.12,6.12,0,0,0,149.07,89a5.31,5.31,0,0,0,3.45-.66,5.83,5.83,0,0,0,2.36-5.66l-5.41-8.4Z"/><path class="cls-12" d="M180.22,74.7l-.29-2.31-.75-3-1.28-4.25-2.83-8.93-1.41-4.88h-.61l-.76.11s-.86.39-.93.39-1.12.56-1.12.56l-1,.2-1.06,0-.63-.58-.2-.59.23-.63.56-.69,1.77-1.53,1.64-1.46.36-.81-.16-1.62-.29-2.85.09-3.64.86-3,1.1-4.34,1.79-3.55a21.67,21.67,0,0,1,2.27-3.08A21.18,21.18,0,0,1,184.92,19a22.65,22.65,0,0,1,8.36-1.57,5.4,5.4,0,0,1,3.1.86,4.67,4.67,0,0,1,1.5,1.7c1.17,2.28,0,5-1.1,6.36a3,3,0,0,1-1.84,1.31c-.9.1-1.56-.5-2.34-1a14.64,14.64,0,0,0-4.47-1.88,8.75,8.75,0,0,0-7,1.3,7.23,7.23,0,0,0-2,2.45L179,29.88l-.18,2.43.49,3.64,1.65,4.52.92,2.94,1.46-.09,1.93-.54,4.46-1,.56.48,1,2.41.09.67v.31l-.16.37-.6.13-1.46.4-1.35.41-4.05,1-.45.36v.54l.18.65.32.87,1.82,6.41,1.19,3.5L189,67.69l1.1,2.85.76,1.42,1.08.54,1.49.38,1,.11,1,0,.54.56.27.9.09.72,0,.69-.9.5-1.64.4-15.29,4.39-.9-.09-.69-.57-.07-1.37.29-.87,1.35-1.1,1.46-.81.27-.79Z"/><path class="cls-12" d="M213.29,31.91l.66-1.14,1.89-2s2.27-2.47,2.18-2.47S219.94,24,219.94,24l2.65-3.32c.94-1,2-1.89,2.59-2.44a3.86,3.86,0,0,1,1-.78,3.49,3.49,0,0,1,2.28-.21,3.25,3.25,0,0,1,1.62,1.08,3.5,3.5,0,0,1,.66,1.65,4.07,4.07,0,0,1-.06,2,3.88,3.88,0,0,1-1,1.59c-1.14,1.09-6.46,4.59-13.85,9.05l-.19.08-.28.08h-1l-.26-.08-.27-.07-.22-.1-.22-.19-.06-.21Z"/><path class="cls-12" d="M238.55,52.22a17.75,17.75,0,0,0-3.3-9.29,16.63,16.63,0,0,0-8.93-6.41c-8.61-2.35-15.68,4-16.42,4.74a19.26,19.26,0,0,0-5.81,11.38A19,19,0,0,0,206,63.91,17.25,17.25,0,0,0,214.21,72c6.44,2.86,12.47.38,13.91-.24a19.06,19.06,0,0,0,9.47-9.17l.12-.7-.14-.5-.29-.33-.4-.12-.45.14-.21.18-.31.65a9,9,0,0,1-.52.81c-2.33,3.24-6.78,4.64-10.58,4.31a9.92,9.92,0,0,1-3.08-.67,11.21,11.21,0,0,1-5.82-6,12.65,12.65,0,0,1-1-6.34l23.61-1.46Z"/><path class="cls-14" d="M213.89,51.21c4.37-.2,8.5-.94,12.87-1.14V48.4a11.31,11.31,0,0,0-1.38-4.85c-1.31-2.28-2-2.25-3.14-2.68s-4.13,0-4.72.21c-1.31.42-1.61.94-2.44,2.41-.31.55-.55,1-.73,1.37a5,5,0,0,0-.29,1.09,4.25,4.25,0,0,0-.17,1Z"/><polygon class="cls-12" points="249.4 50.25 271.69 53.66 271.69 62.2 248.59 58.88 249.4 50.25"/><path class="cls-12" d="M296.83,29.25l.61.45.68.41.76.58.63.5,1,.9.58.85.18,1.26v2.47l-.85,2.11L290.39,61l-4.41,10a6.5,6.5,0,0,1-.9.58,8.83,8.83,0,0,1-6.77.28,5.59,5.59,0,0,1-.67-.23l-.57.53-.39.77-.32.67-.18.81.41.36,1.35.5,30.11,13.3a25,25,0,0,0,2.74.54c3.12.45,7.21,1,11.24-.76a13.42,13.42,0,0,0,7-18A15.4,15.4,0,0,0,324,63.91l-.24-.56,0-.28.12-.42.27-.36h.45l.37.16a7.21,7.21,0,0,0,1.07.36A9.47,9.47,0,0,0,334.71,60a9.83,9.83,0,0,0,2.42-4.71,11.67,11.67,0,0,0-2-9,17.79,17.79,0,0,0-3-2.94,41.93,41.93,0,0,0-6-4.31,90.88,90.88,0,0,0-10.64-5.36l-16.93-7.23-.28-.07H298l-.25.11-.23.28-.26.42-.31.57-.19.39-.1.28,0,.28Z"/><path class="cls-14" d="M313.67,36.49l-7.95,17c.22.19.59.5,1.06.85,1.06.79,5.74,4.25,11.61,3.55a8,8,0,0,0,4.36-1.48,8.26,8.26,0,0,0,2.74-4.81c.31-1.18,1.36-5.14-.76-8.45-1.11-1.74-2.79-2.64-6.16-4.45a36.94,36.94,0,0,0-4.18-1.93Z"/><path class="cls-14" d="M304.5,56.58,296.05,75a6.62,6.62,0,0,0,0,.9c.25,3.29,3.2,5.43,3.87,5.89a10.59,10.59,0,0,0,6.87,1.61A11.55,11.55,0,0,0,312,81.93a12.56,12.56,0,0,0,5.53-7.1,12.46,12.46,0,0,0,.23-8.45c-2-5.49-8.33-7.88-9-8.09Z"/><path class="cls-12" d="M346.07,84.54a5.36,5.36,0,0,1,1.44-2.16c3-2.78,7.6-1.89,8.79-1.66,3,.58,5.05,2.14,9.15,5.28a17.77,17.77,0,0,1,3.09,2.9,11.83,11.83,0,0,1,2.54,4.53,11,11,0,0,1,.27,4.14,10,10,0,0,1-.9,3.63,9.49,9.49,0,0,1-2.08,2.88l-9.58,10.11-1.39,1.52-.36.49-.24.43-.15.48,0,.45.08.4.36.73.71.44.69.53.51.28.19.34-.16.31-.32.34-.61.37-.6.19-1.29.25-1.45,0-3.05-.22a8.63,8.63,0,0,1-1.72-.64,10.13,10.13,0,0,1-3.6-3.72,5.06,5.06,0,0,1-.62-3.23l1.42-2.61-2,.4c-.3,0-.73,0-1.23,0a12.08,12.08,0,0,1-5.16-1.6,10.71,10.71,0,0,1-4.25-3.4,13.07,13.07,0,0,1-1.77-3.69,9.42,9.42,0,0,1-.6-3.89c.18-3,3.08-5.44,5.36-6.47a10.35,10.35,0,0,1,6.22-.67l2.83.88,4.31,1.75,4.89,2.22,2.81,1,.9.05.72-.29.47-.5,2.88-3.27.85-2.23-.27-1.39-.93-1.81-1.72-1.62-1.38-.56L358.73,86l-1.09.32-1.06.91-1,1.11-.6.58-.67.09-1.08-.13-1.09-.65-5.43-2.65-.45-.42Z"/><path class="cls-14" d="M354.74,98.73v.73L348,107.74l-.79.11a9.35,9.35,0,0,1-4.65-.36,5,5,0,0,1-2.74-2.36c-1-2.09.26-4.3.56-4.83a7.35,7.35,0,0,1,3.35-3c4.61-2.2,9.86.74,10.56,1.15Z"/><path class="cls-12" d="M383.34,110.57l-.81.49-.36.63v1.08l.36,1,.23,1.26v1.58l-.59,1.12-17.53,11.69h-.72a5.36,5.36,0,0,1-2.15-.27c-.8-.42-.52-1.09-1.35-1.58-.51-.29-1.4-.52-1.89,0a1.47,1.47,0,0,0-.27,1.26l10.56,14.83a1.19,1.19,0,0,0,.41.67,1.47,1.47,0,0,0,1.48,0,1.76,1.76,0,0,0,.94-1.7c-.07-.7-.64-.84-.94-1.49s-.32-1.46.63-3l11.49-8.35a5.65,5.65,0,0,1,1-.73,10,10,0,0,1,1.66-.45,8.86,8.86,0,0,1,1.43-.12,8,8,0,0,1,1.67.18,6.73,6.73,0,0,1,2.29.75c1.47.85,2.87,3.53,3,7.19l.15.4.34.14.72,0,7.24-1.21.54-.27V135c-.06-.23-.15-.57-.25-1-1.07-4-1.61-6-2.42-6.73a6.44,6.44,0,0,0-4.1-1.2,9.38,9.38,0,0,0-3.15.39H388.8l-.33-.18-.06-.24,0-.27.09-.18,7.37-5.06.24-.36.14-.49v-.42l-.32-.28-4.06-3.11-5.68-3.84-1.49-1.42-.39-.09h-.93Z"/></g></g></g></svg>
