<?xml version="1.0" encoding="utf-8"?>
<!-- Generator: Adobe Illustrator 25.0.1, SVG Export Plug-In . SVG Version: 6.00 Build 0)  -->
<svg version="1.1" id="Capa_1" xmlns="http://www.w3.org/2000/svg" xmlns:xlink="http://www.w3.org/1999/xlink" x="0px" y="0px"
	 viewBox="0 0 1440 320" style="enable-background:new 0 0 1440 320;" xml:space="preserve">
<style type="text/css">
	.st0{fill:#FFFFFF;}
	.st1{fill:#A2D9FF;}
	.st2{fill:#0099FF;}
</style>
<path class="st0" d="M0,32l14.1,26.7C28.2,85,31,143.7,60,154c27.9,10.7,88,20.3,116-1c28.6-21.7,57-35,85-14c28.4,21,50,32,78,58.3
	c28.1,26.7,56,26.7,85,21.4c27.8-5.7,56-15.7,84,0c28.5,16.3,57,58.3,85,37.3c28.2-21,64-41,93-46c27.9-5,48,3,76,35.3
	c28.6,31.7,57,21.7,85,10.7c28.3-11,57-21,85-32s41-1,69-12c28.7-11,61-28.7,89-13c28.4,16.3,68,46,96,57c28.1,11,56-11,85-16
	c27.8-5,56,5,84-21.3c28.5-26.7,57-90.7,71-122.7l14-32V0h-14.1c-14.1,0-41.9,0-70.9,0c-27.9,0-56,0-84,0c-28.6,0-57,0-85,0
	c-28.4,0-57,0-85,0c-28.1,0-56,0-85,0c-27.8,0-56,0-84,0c-28.5,0-57,0-85,0c-28.2,0-56,0-85,0c-27.9,0-56,0-84,0c-28.6,0-57,0-85,0
	c-28.3,0-57,0-85,0s-56,0-84,0c-28.7,0-57,0-85,0c-28.4,0-57,0-85,0c-28.1,0-56,0-85,0c-27.8,0-56,0-84,0C56.5,0,28,0,14,0H0V32z"/>
<path class="st1" d="M0,9.9l14.1,26.7c14.1,26.3,16.9,85,45.9,95.3c27.9,10.7,88,20.3,116-1c28.6-21.7,57-35,85-14
	c28.4,21,50,32,78,58.3c28.1,26.7,56,26.7,85,21.4c27.8-5.7,56-15.7,84,0c28.5,16.3,57,58.3,85,37.3c28.2-21,64-41,93-46
	c27.9-5,48,3,76,35.3c28.6,31.7,57,21.7,85,10.7c28.3-11,57-21,85-32s41-1,69-12c28.7-11,61-28.7,89-13c28.4,16.3,68,46,96,57
	c28.1,11,56-11,85-16c27.8-5,56,5,84-21.3c28.5-26.7,57-90.7,71-122.7l14-32v-64h-14.1c-14.1,0-41.9,0-70.9,0c-27.9,0-56,0-84,0
	c-28.6,0-57,0-85,0c-28.4,0-57,0-85,0c-28.1,0-56,0-85,0c-27.8,0-56,0-84,0c-28.5,0-57,0-85,0c-28.2,0-56,0-85,0c-27.9,0-56,0-84,0
	c-28.6,0-57,0-85,0c-28.3,0-57,0-85,0s-56,0-84,0c-28.7,0-57,0-85,0c-28.4,0-57,0-85,0c-28.1,0-56,0-85,0c-27.8,0-56,0-84,0
	c-28.5,0-57,0-71,0H0V9.9z"/>
<path class="st2" d="M0-15.2l14.1,26.7C28.2,37.8,31,96.5,60,106.8c27.9,10.7,88,20.3,116-1c28.6-21.7,57-35,85-14
	c28.4,21,50,32,78,58.3c28.1,26.7,56,26.7,85,21.4c27.8-5.7,56-15.7,84,0c28.5,16.3,57,58.3,85,37.3c28.2-21,64-41,93-46
	c27.9-5,48,3,76,35.3c28.6,31.7,57,21.7,85,10.7c28.3-11,57-21,85-32s41-1,69-12c28.7-11,61-28.7,89-13c28.4,16.3,68,46,96,57
	c28.1,11,56-11,85-16c27.8-5,56,5,84-21.3c28.5-26.7,57-90.7,71-122.7l14-32v-64h-14.1c-14.1,0-41.9,0-70.9,0c-27.9,0-56,0-84,0
	c-28.6,0-57,0-85,0c-28.4,0-57,0-85,0c-28.1,0-56,0-85,0c-27.8,0-56,0-84,0c-28.5,0-57,0-85,0c-28.2,0-56,0-85,0c-27.9,0-56,0-84,0
	c-28.6,0-57,0-85,0c-28.3,0-57,0-85,0s-56,0-84,0c-28.7,0-57,0-85,0c-28.4,0-57,0-85,0c-28.1,0-56,0-85,0c-27.8,0-56,0-84,0
	c-28.5,0-57,0-71,0H0V-15.2z"/>
</svg>
